<svg width="139" height="21" viewBox="0 0 139 21" fill="none" xmlns="http://www.w3.org/2000/svg">
<path d="M7.17365 0.331902C7.23997 0.265582 7.31734 0.232422 7.41682 0.232422H11.4624C11.5618 0.232422 11.6392 0.265582 11.7055 0.331902C11.7719 0.398223 11.805 0.475596 11.805 0.575077V19.8522C11.805 19.9517 11.7719 20.029 11.7055 20.0954C11.6392 20.1617 11.5618 20.1948 11.4624 20.1948H7.41682C7.31734 20.1948 7.23997 20.1617 7.17365 20.0954C7.10733 20.029 7.07417 19.9517 7.07417 19.8522V12.3801C7.07417 12.2806 7.02995 12.2364 6.93047 12.2364H4.87454C4.77506 12.2364 4.73085 12.2806 4.73085 12.3801V19.8522C4.73085 19.9517 4.69769 20.029 4.63137 20.0954C4.56505 20.1617 4.48768 20.1948 4.3882 20.1948H0.342655C0.243175 20.1948 0.165801 20.1617 0.0994805 20.0954C0.0331602 20.029 0 19.9517 0 19.8522V0.575077C0 0.475596 0.0331602 0.398223 0.0994805 0.331902C0.165801 0.265582 0.243175 0.232422 0.342655 0.232422H4.3882C4.48768 0.232422 4.56505 0.265582 4.63137 0.331902C4.69769 0.398223 4.73085 0.475596 4.73085 0.575077V8.01401C4.73085 8.11349 4.77506 8.1577 4.87454 8.1577H6.93047C7.02995 8.1577 7.07417 8.11349 7.07417 8.01401V0.575077C7.07417 0.475596 7.10733 0.398223 7.17365 0.331902Z" fill="white"/>
<path d="M23.8837 4.17848C23.8174 4.2448 23.74 4.27796 23.6406 4.27796H17.9038C17.8044 4.27796 17.7601 4.32217 17.7601 4.42166V8.01401C17.7601 8.11349 17.8044 8.1577 17.9038 8.1577H21.043C21.1425 8.1577 21.2199 8.19086 21.2862 8.25718C21.3525 8.3235 21.3857 8.40087 21.3857 8.50035V11.8937C21.3857 11.9932 21.3525 12.0706 21.2862 12.1369C21.2199 12.2032 21.1425 12.2364 21.043 12.2364H17.9038C17.8044 12.2364 17.7601 12.2806 17.7601 12.3801V16.0056C17.7601 16.1051 17.8044 16.1493 17.9038 16.1493H23.6406C23.74 16.1493 23.8174 16.1825 23.8837 16.2488C23.95 16.3151 23.9832 16.3925 23.9832 16.492V19.8522C23.9832 19.9517 23.95 20.029 23.8837 20.0954C23.8174 20.1617 23.74 20.1948 23.6406 20.1948H13.372C13.2725 20.1948 13.1951 20.1617 13.1288 20.0954C13.0625 20.029 13.0293 19.9517 13.0293 19.8522V0.575077C13.0293 0.475596 13.0625 0.398223 13.1288 0.331902C13.1951 0.265582 13.2725 0.232422 13.372 0.232422H23.6406C23.74 0.232422 23.8174 0.265582 23.8837 0.331902C23.95 0.398223 23.9832 0.475596 23.9832 0.575077V3.93531C23.9832 4.03479 23.95 4.11216 23.8837 4.17848Z" fill="white"/>
<path d="M24.5312 20.0733C24.498 19.9959 24.498 19.9075 24.5312 19.7859L28.3557 10.291C28.3778 10.2357 28.3778 10.1805 28.3557 10.1252L24.5312 0.630344C24.5312 0.630344 24.498 0.530863 24.498 0.464543C24.498 0.309796 24.5975 0.232422 24.7854 0.232422H28.9194C29.1073 0.232422 29.2289 0.331902 29.2952 0.51981L30.8316 5.22855C30.8537 5.30593 30.8759 5.33909 30.9201 5.33909C30.9643 5.33909 30.9864 5.30593 31.0085 5.22855L32.5228 0.51981C32.5781 0.331902 32.6997 0.232422 32.8986 0.232422H37.0105C37.1431 0.232422 37.2315 0.265582 37.2647 0.342956C37.2979 0.420329 37.2979 0.508757 37.2647 0.630344L33.4402 10.1252C33.4181 10.1805 33.4181 10.2357 33.4402 10.291L37.2647 19.7859C37.2647 19.7859 37.2979 19.8853 37.2979 19.9517C37.2979 20.1064 37.1984 20.1838 37.0105 20.1838H32.9318C32.7439 20.1838 32.6223 20.0843 32.556 19.8964L31.0195 15.2208C30.9974 15.1434 30.9753 15.1103 30.9311 15.1213C30.8869 15.1213 30.8648 15.1655 30.8427 15.2208L29.2731 19.8964C29.2178 20.0843 29.0963 20.1838 28.8973 20.1838H24.7854C24.6528 20.1838 24.5644 20.1506 24.5312 20.0733Z" fill="white"/>
<path d="M44.7482 19.8743L44.3724 17.3983C44.3724 17.2989 44.3171 17.2546 44.2066 17.2546H41.1227C41.0122 17.2546 40.9569 17.2989 40.9569 17.3983L40.6142 19.8743C40.5921 20.0843 40.4705 20.1838 40.2384 20.1838H36.1929C35.9497 20.1838 35.8502 20.0622 35.9055 19.808L40.0395 0.541917C40.0726 0.331902 40.2053 0.232422 40.4153 0.232422H45.0688C45.2788 0.232422 45.4004 0.331902 45.4446 0.541917L49.5564 19.819L49.5896 19.9296C49.5896 20.0954 49.4901 20.1838 49.2801 20.1838H45.1461C44.914 20.1838 44.7924 20.0843 44.7703 19.8743H44.7482ZM41.6975 13.607H43.6097C43.6871 13.607 43.7202 13.5628 43.7202 13.4633L42.6923 6.96393C42.6702 6.88656 42.6481 6.8534 42.6038 6.8534C42.5596 6.8534 42.5375 6.88656 42.5154 6.96393L41.5759 13.4633C41.5759 13.5628 41.609 13.607 41.6864 13.607H41.6975Z" fill="white"/>
<path d="M51.0448 18.8902C49.9615 17.8733 49.4199 16.5138 49.4199 14.8005V5.59301C49.4199 3.87974 49.9615 2.52017 51.0448 1.51431C52.128 0.508456 53.576 0 55.3777 0C57.1794 0 58.6274 0.508456 59.7217 1.53642C60.816 2.56439 61.3576 3.93501 61.3576 5.64828V6.69835C61.3576 6.79783 61.3244 6.87521 61.2581 6.94153C61.1918 7.00785 61.1144 7.04101 61.0149 7.04101H56.9694C56.8699 7.04101 56.7925 7.00785 56.7262 6.94153C56.6599 6.87521 56.6267 6.79783 56.6267 6.69835V5.58196C56.6267 5.12877 56.5162 4.75296 56.2841 4.46557C56.052 4.17818 55.7535 4.03449 55.3666 4.03449C54.9798 4.03449 54.7145 4.17818 54.4824 4.46557C54.2503 4.75296 54.1397 5.11772 54.1397 5.58196V14.8226C54.1397 15.2758 54.2503 15.6516 54.4824 15.939C54.7145 16.2264 55.0019 16.3701 55.3666 16.3701C55.7425 16.3701 56.052 16.2264 56.2841 15.939C56.5162 15.6516 56.6267 15.2868 56.6267 14.8226V12.9988C56.6267 12.8993 56.5825 12.8551 56.483 12.8551H55.7425C55.643 12.8551 55.5656 12.8219 55.4993 12.7556C55.433 12.6893 55.3998 12.6119 55.3998 12.5124V9.49486C55.3998 9.39538 55.433 9.31801 55.4993 9.25169C55.5656 9.18537 55.643 9.15221 55.7425 9.15221H61.0149C61.1144 9.15221 61.1918 9.18537 61.2581 9.25169C61.3244 9.31801 61.3576 9.39538 61.3576 9.49486V14.8005C61.3576 16.5138 60.816 17.8733 59.7217 18.8902C58.6274 19.9072 57.1794 20.4156 55.3777 20.4156C53.576 20.4156 52.128 19.9072 51.0448 18.8902Z" fill="white"/>
<path d="M63.8449 18.8239C62.7506 17.7628 62.209 16.3259 62.209 14.5131V5.90251C62.209 4.11186 62.7506 2.68597 63.8449 1.61379C64.9392 0.541616 66.4093 0 68.2552 0C70.1011 0 71.5491 0.541616 72.6655 1.61379C73.7819 2.68597 74.3346 4.12291 74.3346 5.90251V14.5131C74.3346 16.3148 73.7819 17.7517 72.6655 18.8239C71.5491 19.885 70.079 20.4156 68.2552 20.4156C66.4314 20.4156 64.9392 19.885 63.8449 18.8239ZM69.2279 15.9279C69.4711 15.6295 69.5816 15.2316 69.5816 14.7121V5.70355C69.5816 5.19509 69.46 4.78612 69.2279 4.48768C68.9958 4.18923 68.6642 4.04554 68.2441 4.04554C67.8241 4.04554 67.5036 4.18923 67.2714 4.48768C67.0393 4.78612 66.9288 5.18404 66.9288 5.70355V14.7121C66.9288 15.2205 67.0393 15.6295 67.2714 15.9279C67.5036 16.2264 67.8241 16.3701 68.2441 16.3701C68.6642 16.3701 68.9847 16.2264 69.2279 15.9279Z" fill="white"/>
<path d="M83.6839 0.331902C83.7502 0.265582 83.8276 0.232422 83.9271 0.232422H87.9174C88.0168 0.232422 88.0942 0.265582 88.1605 0.331902C88.2269 0.398223 88.26 0.475596 88.26 0.575077V19.8522C88.26 19.9517 88.2269 20.029 88.1605 20.0954C88.0942 20.1617 88.0168 20.1948 87.9174 20.1948H83.3855C83.1755 20.1948 83.0428 20.0954 82.9875 19.9074L80.1689 9.98151C80.1468 9.92624 80.1137 9.89308 80.0695 9.88203C80.0252 9.88203 80.0031 9.90413 80.0031 9.98151L80.0584 19.8522C80.0584 19.9517 80.0252 20.029 79.9589 20.0954C79.8926 20.1617 79.8152 20.1948 79.7157 20.1948H75.7255C75.626 20.1948 75.5486 20.1617 75.4823 20.0954C75.416 20.029 75.3828 19.9517 75.3828 19.8522V0.575077C75.3828 0.475596 75.416 0.398223 75.4823 0.331902C75.5486 0.265582 75.626 0.232422 75.7255 0.232422H80.2021C80.4121 0.232422 80.5447 0.331902 80.6 0.51981L83.4518 10.501C83.4739 10.5563 83.5071 10.5894 83.5513 10.5894C83.5955 10.5894 83.6176 10.5563 83.6176 10.4789L83.5844 0.58613C83.5844 0.48665 83.6176 0.409276 83.6839 0.342956V0.331902Z" fill="white"/>
<path d="M95.9315 18.8231C94.8483 17.762 94.3066 16.3472 94.3066 14.5786V5.82434C94.3066 4.03369 94.8483 2.61885 95.9315 1.57984C97.0147 0.529763 98.4627 0.0102539 100.264 0.0102539C102.066 0.0102539 103.525 0.529763 104.608 1.57984C105.703 2.62991 106.244 4.04474 106.244 5.82434V6.07857C106.244 6.17805 106.211 6.25542 106.145 6.32174C106.078 6.38806 106.001 6.42122 105.902 6.42122L101.856 6.58702C101.624 6.58702 101.513 6.47649 101.513 6.24437V5.47063C101.513 5.02849 101.403 4.68584 101.171 4.43161C100.939 4.17738 100.64 4.04474 100.253 4.04474C99.8665 4.04474 99.6012 4.17738 99.3691 4.43161C99.137 4.68584 99.0264 5.03955 99.0264 5.47063V14.9655C99.0264 15.3855 99.137 15.7171 99.3691 15.9824C99.6012 16.2477 99.8886 16.3693 100.253 16.3693C100.629 16.3693 100.939 16.2366 101.171 15.9824C101.403 15.7282 101.513 15.3855 101.513 14.9655V14.1365C101.513 14.037 101.547 13.9596 101.613 13.8933C101.679 13.827 101.757 13.7938 101.856 13.7938L105.902 13.9596C106.001 13.9596 106.078 13.9928 106.145 14.0591C106.211 14.1254 106.244 14.2028 106.244 14.3023V14.5565C106.244 16.3251 105.703 17.7399 104.608 18.801C103.514 19.8621 102.066 20.3927 100.264 20.3927C98.4627 20.3927 97.0147 19.8621 95.9315 18.801V18.8231Z" fill="white"/>
<path d="M107.328 20.0954C107.262 20.029 107.229 19.9517 107.229 19.8522V0.575077C107.229 0.475596 107.262 0.398223 107.328 0.331902C107.394 0.265582 107.472 0.232422 107.571 0.232422H111.617C111.716 0.232422 111.794 0.265582 111.86 0.331902C111.926 0.398223 111.959 0.475596 111.959 0.575077V19.8522C111.959 19.9517 111.926 20.029 111.86 20.0954C111.794 20.1617 111.716 20.1948 111.617 20.1948H107.571C107.472 20.1948 107.394 20.1617 107.328 20.0954Z" fill="white"/>
<path d="M125.357 0.331902C125.423 0.398223 125.456 0.475596 125.456 0.575077V3.93531C125.456 4.03479 125.423 4.11216 125.357 4.17848C125.29 4.2448 125.213 4.27796 125.114 4.27796H121.577C121.477 4.27796 121.433 4.32217 121.433 4.42166V19.8522C121.433 19.9517 121.4 20.029 121.333 20.0954C121.267 20.1617 121.19 20.1948 121.09 20.1948H117.045C116.945 20.1948 116.868 20.1617 116.801 20.0954C116.735 20.029 116.702 19.9517 116.702 19.8522V4.42166C116.702 4.32217 116.658 4.27796 116.558 4.27796H113.165C113.065 4.27796 112.988 4.2448 112.922 4.17848C112.855 4.11216 112.822 4.03479 112.822 3.93531V0.575077C112.822 0.475596 112.855 0.398223 112.922 0.331902C112.988 0.265582 113.065 0.232422 113.165 0.232422H125.114C125.213 0.232422 125.29 0.265582 125.357 0.331902Z" fill="white"/>
<path d="M130.055 20.0401C129.988 19.9738 129.955 19.8964 129.955 19.7969V12.778L129.922 12.6122L125.932 0.630344C125.932 0.630344 125.898 0.541917 125.898 0.48665C125.898 0.320849 125.998 0.232422 126.186 0.232422H130.463C130.651 0.232422 130.773 0.331902 130.839 0.541917L132.265 6.82024C132.287 6.89761 132.309 6.93077 132.354 6.93077C132.398 6.93077 132.42 6.89761 132.442 6.82024L133.868 0.541917C133.923 0.331902 134.045 0.232422 134.244 0.232422H138.521C138.632 0.232422 138.72 0.265582 138.765 0.331902C138.809 0.398223 138.82 0.497703 138.776 0.630344L134.73 12.6122L134.697 12.778V19.7969C134.697 19.8964 134.664 19.9738 134.597 20.0401C134.531 20.1064 134.454 20.1396 134.354 20.1396H130.309C130.209 20.1396 130.132 20.1064 130.066 20.0401H130.055Z" fill="white"/>
</svg>
