<svg width="20" height="19" viewBox="0 0 20 19" fill="none" xmlns="http://www.w3.org/2000/svg">
<path d="M19.6096 3.60962L18.2192 2.30202L18.3908 2.14064C18.9116 1.65086 18.9116 0.857122 18.3908 0.367338C17.87 -0.122446 17.026 -0.122446 16.5052 0.367338L7.6828 8.66432C6.9736 8.33554 6.176 8.15084 5.3336 8.15084C2.3924 8.15046 0 10.4004 0 13.166C0 15.9317 2.3924 18.1816 5.3332 18.1816C8.274 18.1816 10.6664 15.9317 10.6664 13.166C10.6664 12.103 10.3124 11.1159 9.71 10.3037L12.9996 7.21002L14.39 8.51761C14.6504 8.7625 14.9916 8.88476 15.3328 8.88476C15.674 8.88476 16.0152 8.7625 16.2756 8.51761C16.7964 8.02783 16.7964 7.23409 16.2756 6.74431L14.8852 5.43671L16.3328 4.07533L17.7232 5.38292C17.9836 5.62781 18.3248 5.75007 18.666 5.75007C19.0072 5.75007 19.3484 5.62781 19.6088 5.38292C20.1296 4.89314 20.1296 4.0994 19.6088 3.60962H19.6096ZM5.3332 15.674C3.8628 15.674 2.6664 14.5489 2.6664 13.166C2.6664 11.7832 3.8628 10.6581 5.3332 10.6581C6.8036 10.6581 8 11.7832 8 13.166C8 14.5489 6.8036 15.674 5.3332 15.674Z" fill="white"/>
</svg>
