<svg width="84" height="68" viewBox="0 0 84 68" fill="none" xmlns="http://www.w3.org/2000/svg">
<g clip-path="url(#clip0_222_406)">
<path d="M49.5244 40.4916C49.4119 40.2037 49.29 39.9157 49.1681 39.6278C49.14 39.6278 49.1025 39.6193 49.0744 39.6108C49.0088 39.7209 48.9244 39.8226 48.8681 39.9411C48.6056 40.534 48.4274 41.1692 48.0899 41.7197C47.7617 42.2448 47.893 42.8376 47.5742 43.3627C47.6961 43.3797 47.7711 43.3966 47.8367 43.3881C48.6243 43.3035 49.4213 43.2103 50.2089 43.1256C50.4995 43.0917 50.5277 42.9732 50.4339 42.7445C50.1151 41.9992 49.8245 41.2454 49.5244 40.5001V40.4916Z" fill="white"/>
<path d="M53.5186 36.6637C52.8154 36.3419 52.1029 36.0285 51.3903 35.7151C51.3059 35.6813 51.2028 35.6643 51.1184 35.6389C51.0996 35.6643 51.0715 35.6813 51.0527 35.7067C51.9622 37.0956 52.8623 38.4931 53.7905 39.9159C54.1281 38.9589 54.4656 37.1295 54.3437 36.8246C54.0249 36.9855 53.7905 36.7907 53.528 36.6637H53.5186Z" fill="white"/>
<path d="M41.9953 0L0 16.7861V51.2223L41.9953 68.0085L83.9906 51.2223V16.7861L41.9953 0ZM41.9953 2.43916L79.6589 17.4891L62.707 21.7407H21.293L4.33173 17.4891L41.9953 2.43916ZM2.31588 19.9283L21.293 22.1303V46.1746L2.31588 48.3766V19.9283ZM81.6748 48.3851L62.7914 46.1916V43.2696C62.6132 43.3374 62.4257 43.3882 62.2382 43.4136C61.9663 43.4475 61.8163 43.5576 61.7319 43.7947C61.4225 44.6755 61.1037 45.5479 60.7849 46.4202C60.7662 46.4795 60.738 46.5303 60.7193 46.5727H62.7164L79.6683 50.8243L42.0047 65.8742L4.34111 50.8158L21.3024 46.5642H27.8656C27.8562 45.5055 27.6406 44.4723 27.4343 43.4306C27.2562 42.5498 27.4156 41.6435 28.1 40.8982C28.2031 40.7797 28.3344 40.678 28.4563 40.5849C28.8407 40.2969 29.1314 40.3308 29.3564 40.7373C29.5439 41.0761 29.6846 41.4572 29.7596 41.8299C29.919 42.5498 30.369 43.0918 30.9035 43.6084C31.0066 43.7101 31.091 43.7693 31.2785 43.6846C31.3816 43.6338 31.5785 43.7016 31.7004 43.7524C32.1317 43.9472 32.5536 44.1674 32.9943 44.3622C33.1162 44.413 33.285 44.4045 33.4256 44.3961C33.885 44.3622 34.307 44.4469 34.7289 44.6078C34.9633 44.6925 35.2446 44.6755 35.5071 44.701C35.9009 44.7433 36.2853 44.8111 36.6791 44.8365C36.8947 44.8534 37.1385 44.8619 37.326 44.7857C38.5731 44.286 39.8763 44.0658 41.2265 43.9472C41.7047 43.9048 42.1828 43.8032 42.6516 43.71C42.9423 43.6508 43.233 43.5576 43.5236 43.4983C43.7018 43.4644 43.8049 43.4052 43.8049 43.2273C43.8049 43.0579 43.8424 42.897 43.8705 42.6429C43.6361 42.753 43.458 42.8462 43.2705 42.9055C43.1673 42.9393 43.0454 42.9393 42.9329 42.9478C42.961 42.8546 42.961 42.7445 43.0173 42.6683C43.4861 42.1009 43.9549 41.5419 44.4425 40.9914C44.6394 40.7627 44.7612 40.5341 44.8269 40.2461C44.9488 39.7803 45.1082 39.3145 45.3613 38.8995C45.8676 38.0949 46.2708 37.248 46.5521 36.3587C46.7208 35.8251 46.974 35.3593 47.4147 34.9782C47.4522 34.9443 47.4709 34.902 47.4991 34.8681C47.1615 34.6648 47.0959 34.6818 46.974 34.9867C46.824 35.3593 46.6833 35.732 46.5239 36.0877C46.4771 36.1893 46.3458 36.3164 46.2614 36.3164C46.1677 36.3164 46.0364 36.1893 45.9989 36.0877C45.9426 35.9522 45.952 35.7913 45.9333 35.6473C45.9239 35.5456 45.9145 35.4355 45.8582 35.3254C45.5863 35.5965 45.3238 35.8675 45.2863 36.2317C45.2769 36.3333 45.3426 36.4434 45.3988 36.5366C45.5301 36.7483 45.4832 36.9261 45.2488 37.0616C45.0332 37.1802 44.78 37.1548 44.6862 36.9515C44.2831 36.147 44.0862 35.3254 44.6394 34.5039C44.9206 34.0805 45.1925 33.6485 45.4551 33.2166C45.6426 32.9032 45.9145 32.7254 46.327 32.7254C47.9304 32.7254 49.5055 32.8185 51.0151 33.369C51.1182 33.4114 51.2401 33.4453 51.3432 33.4368C52.2808 33.4283 53.2184 33.4199 54.156 33.3775C53.5654 33.098 52.8622 33.0387 52.2715 32.7592C51.2964 32.3104 50.4244 31.6413 49.543 31.0315C49.1305 30.752 48.6898 30.5826 48.1741 30.6927C47.8741 30.7944 47.5834 30.7436 47.2928 30.8452C46.899 30.9383 46.4677 30.7859 46.1114 30.6335C45.8958 30.5233 45.3238 30.337 45.1738 30.1507C45.1269 30.0914 45.155 29.9983 45.2582 29.9305C45.3519 29.8543 45.5207 29.8712 45.652 29.8458C45.7645 29.8204 46.1114 29.6425 46.0176 29.5833C45.952 29.5409 45.8207 29.507 45.7364 29.4732C45.5395 29.3969 45.502 29.3715 45.3426 29.3461C45.1644 29.3038 44.4425 29.1937 44.5081 28.965C44.5925 28.8295 44.8081 28.8295 44.9675 28.8549C47.0584 28.9735 49.093 29.4478 51.0432 30.1761C52.5902 30.6843 54.1467 30.9468 55.5156 31.3957H55.5437C55.7781 31.4889 56.1063 31.5735 56.4626 31.6667C56.3313 31.4889 56.2282 31.2856 56.1438 31.0908C56.0313 30.8113 55.975 30.5149 55.8719 30.2354C55.8437 30.1676 55.7125 30.1253 55.6187 30.0829C55.3937 29.9813 55.1218 29.939 54.9343 29.795C54.5873 29.524 54.653 29.3122 55.028 29.0751C55.3937 28.8464 55.75 28.6008 56.0594 28.3213C56.2 28.1943 56.2469 27.9741 56.3313 27.7962C56.3688 27.7115 56.3688 27.6099 56.3969 27.5252C56.5657 26.8646 56.8188 26.6529 57.5596 26.5851C57.9627 26.5513 58.3659 26.5513 58.7691 26.5174C59.5942 26.4496 60.2317 26.8053 60.813 27.2796C61.2162 27.6099 61.2256 28.0842 61.2725 28.5331C61.3006 28.7956 61.3006 29.0582 61.3287 29.3207C61.3569 29.5917 61.3287 29.8373 61.1037 30.0491C60.813 30.337 60.6912 30.6927 60.7099 31.0908C60.7099 31.2009 60.7287 31.3195 60.7005 31.4296C60.5693 31.87 60.8787 32.0817 61.235 32.2257C61.91 32.4882 62.3788 32.954 62.707 33.513C62.7445 33.5808 62.782 33.657 62.8195 33.7247V22.1218L81.7029 19.9283V48.3851H81.6748Z" fill="white"/>
<path d="M58.7793 46.2932C58.6762 46.3949 58.5637 46.488 58.4512 46.5642H59.8201C59.5857 46.4711 59.3606 46.3694 59.1262 46.2848C59.0231 46.2509 58.8356 46.2339 58.7793 46.2848V46.2932Z" fill="white"/>
</g>
<defs>
<clipPath id="clip0_222_406">
<rect width="84" height="68" fill="white"/>
</clipPath>
</defs>
</svg>
