<svg width="150" height="21" viewBox="0 0 150 21" fill="none" xmlns="http://www.w3.org/2000/svg">
<g clip-path="url(#clip0_222_366)">
<path d="M10.0564 0.228271H14.0963C14.1932 0.228271 14.2756 0.261544 14.3434 0.32809C14.4112 0.394636 14.4451 0.475441 14.4451 0.570506V19.8497C14.4451 19.9448 14.4112 20.0256 14.3434 20.0921C14.2756 20.1587 14.1932 20.192 14.0963 20.192H9.96916C9.87228 20.192 9.78993 20.1587 9.72211 20.0921C9.65429 20.0256 9.62038 19.9448 9.62038 19.8497V7.61484C9.62038 7.53878 9.60101 7.49601 9.56225 7.4865C9.5235 7.47699 9.48475 7.50076 9.44599 7.5578L7.41147 11.0372C7.33397 11.1893 7.27584 11.2653 7.23708 11.2653C7.19833 11.2653 7.13052 11.1893 7.03363 11.0372L4.99911 7.5578C4.96036 7.50076 4.92161 7.47224 4.88285 7.47224C4.8441 7.47224 4.82472 7.51026 4.82472 7.58632V19.8497C4.82472 19.9448 4.79081 20.0256 4.723 20.0921C4.65518 20.1587 4.57283 20.192 4.47595 20.192H0.348775C0.251893 20.192 0.169543 20.1587 0.101726 20.0921C0.0339087 20.0256 0 19.9448 0 19.8497V0.570506C0 0.475441 0.0339087 0.394636 0.101726 0.32809C0.169543 0.261544 0.251893 0.228271 0.348775 0.228271H4.41782C4.61158 0.228271 4.75691 0.304324 4.85379 0.456428L7.17896 4.59176C7.23708 4.66782 7.29521 4.66782 7.35334 4.59176L9.62038 0.456428C9.69789 0.304324 9.84321 0.228271 10.0564 0.228271Z" fill="white"/>
<path d="M24.0654 19.8782L23.6876 17.397C23.6876 17.302 23.6295 17.2544 23.5132 17.2544H20.3742C20.258 17.2544 20.1998 17.302 20.1998 17.397L19.8511 19.8782C19.8317 20.0874 19.7057 20.192 19.4732 20.192H15.3461C15.0942 20.192 14.9973 20.0684 15.0554 19.8212L19.2698 0.541987C19.3085 0.332843 19.4345 0.228271 19.6476 0.228271H24.3851C24.5983 0.228271 24.7242 0.332843 24.763 0.541987L28.9483 19.8212L28.9774 19.9353C28.9774 20.1064 28.8708 20.192 28.6576 20.192H24.4433C24.2108 20.192 24.0848 20.0874 24.0654 19.8782ZM20.9555 13.6039H22.9029C22.9804 13.6039 23.0191 13.5564 23.0191 13.4613L21.9728 6.95889C21.9534 6.88283 21.9243 6.84481 21.8856 6.84481C21.8468 6.84481 21.8178 6.88283 21.7984 6.95889L20.8393 13.4613C20.8393 13.5564 20.878 13.6039 20.9555 13.6039Z" fill="white"/>
<path d="M29.7775 20.0921C29.7097 20.0256 29.6758 19.9448 29.6758 19.8497V0.570506C29.6758 0.475441 29.7097 0.394636 29.7775 0.32809C29.8453 0.261544 29.9277 0.228271 30.0246 0.228271H34.1517C34.2486 0.228271 34.331 0.261544 34.3988 0.32809C34.4666 0.394636 34.5005 0.475441 34.5005 0.570506V7.01593C34.5005 7.09198 34.5199 7.13 34.5586 7.13C34.5974 7.13 34.6361 7.10148 34.6749 7.04445L37.7267 0.484947C37.8042 0.31383 37.9398 0.228271 38.1336 0.228271H42.4933C42.6289 0.228271 42.7209 0.261544 42.7694 0.32809C42.8178 0.394636 42.813 0.494454 42.7549 0.627545L38.5405 9.01229C38.5211 9.08835 38.5114 9.14539 38.5114 9.18341L42.9292 19.7927C42.9486 19.8307 42.9583 19.8878 42.9583 19.9638C42.9583 20.1159 42.8614 20.192 42.6677 20.192H38.2789C38.0658 20.192 37.9301 20.1064 37.872 19.9353L35.2562 13.2617C35.2368 13.2047 35.2077 13.1761 35.169 13.1761C35.1302 13.1761 35.0915 13.2047 35.0527 13.2617L34.5296 14.2884C34.5102 14.3264 34.5005 14.3835 34.5005 14.4595V19.8497C34.5005 19.9448 34.4666 20.0256 34.3988 20.0921C34.331 20.1587 34.2486 20.192 34.1517 20.192H30.0246C29.9277 20.192 29.8453 20.1587 29.7775 20.0921Z" fill="white"/>
<path d="M54.6841 4.17823C54.6163 4.24478 54.5339 4.27805 54.437 4.27805H48.595C48.4982 4.27805 48.4497 4.32558 48.4497 4.42065V8.01411C48.4497 8.10918 48.4982 8.15671 48.595 8.15671H51.7922C51.889 8.15671 51.9714 8.18998 52.0392 8.25653C52.107 8.32307 52.1409 8.40388 52.1409 8.49894V11.8928C52.1409 11.9878 52.107 12.0686 52.0392 12.1352C51.9714 12.2017 51.889 12.235 51.7922 12.235H48.595C48.4982 12.235 48.4497 12.2825 48.4497 12.3776V15.9996C48.4497 16.0947 48.4982 16.1422 48.595 16.1422H54.437C54.5339 16.1422 54.6163 16.1755 54.6841 16.242C54.7519 16.3085 54.7858 16.3894 54.7858 16.4844V19.8497C54.7858 19.9448 54.7519 20.0256 54.6841 20.0921C54.6163 20.1587 54.5339 20.192 54.437 20.192H43.9738C43.8769 20.192 43.7945 20.1587 43.7267 20.0921C43.6589 20.0256 43.625 19.9448 43.625 19.8497V0.570506C43.625 0.475441 43.6589 0.394636 43.7267 0.32809C43.7945 0.261544 43.8769 0.228271 43.9738 0.228271H54.437C54.5339 0.228271 54.6163 0.261544 54.6841 0.32809C54.7519 0.394636 54.7858 0.475441 54.7858 0.570506V3.93581C54.7858 4.03088 54.7519 4.11168 54.6841 4.17823Z" fill="white"/>
<path d="M60.9045 20.0921C60.8366 20.0256 60.8027 19.9448 60.8027 19.8497V0.570506C60.8027 0.475441 60.8366 0.394636 60.9045 0.32809C60.9723 0.261544 61.0546 0.228271 61.1515 0.228271H65.2787C65.3756 0.228271 65.4579 0.261544 65.5257 0.32809C65.5936 0.394636 65.6275 0.475441 65.6275 0.570506V19.8497C65.6275 19.9448 65.5936 20.0256 65.5257 20.0921C65.4579 20.1587 65.3756 20.192 65.2787 20.192H61.1515C61.0546 20.192 60.9723 20.1587 60.9045 20.0921Z" fill="white"/>
<path d="M79.2739 0.32809C79.3417 0.394636 79.3756 0.475441 79.3756 0.570506V3.93581C79.3756 4.03088 79.3417 4.11168 79.2739 4.17823C79.2061 4.24478 79.1237 4.27805 79.0268 4.27805H75.4228C75.3259 4.27805 75.2775 4.32558 75.2775 4.42065V19.8497C75.2775 19.9448 75.2436 20.0256 75.1758 20.0921C75.108 20.1587 75.0256 20.192 74.9287 20.192H70.8016C70.7047 20.192 70.6223 20.1587 70.5545 20.0921C70.4867 20.0256 70.4528 19.9448 70.4528 19.8497V4.42065C70.4528 4.32558 70.4043 4.27805 70.3075 4.27805H66.8488C66.7519 4.27805 66.6695 4.24478 66.6017 4.17823C66.5339 4.11168 66.5 4.03088 66.5 3.93581V0.570506C66.5 0.475441 66.5339 0.394636 66.6017 0.32809C66.6695 0.261544 66.7519 0.228271 66.8488 0.228271H79.0268C79.1237 0.228271 79.2061 0.261544 79.2739 0.32809Z" fill="white"/>
<path d="M89.1566 20.0351C89.0888 19.9686 89.0549 19.8878 89.0549 19.7927V12.7769L89.0258 12.6058L84.9568 0.627545C84.9374 0.589519 84.9277 0.541987 84.9277 0.484947C84.9277 0.31383 85.0246 0.228271 85.2184 0.228271H89.5781C89.7718 0.228271 89.8978 0.332843 89.9559 0.541987L91.4091 6.81629C91.4285 6.89234 91.4576 6.93037 91.4963 6.93037C91.5351 6.93037 91.5641 6.89234 91.5835 6.81629L93.0368 0.541987C93.0949 0.332843 93.2208 0.228271 93.4146 0.228271H97.7743C97.8905 0.228271 97.9729 0.261544 98.0213 0.32809C98.0698 0.394636 98.0746 0.494454 98.0359 0.627545L93.9087 12.6058L93.8796 12.7769V19.7927C93.8796 19.8878 93.8457 19.9686 93.7779 20.0351C93.7101 20.1016 93.6277 20.1349 93.5309 20.1349H89.4037C89.3068 20.1349 89.2244 20.1016 89.1566 20.0351Z" fill="white"/>
<path d="M99.5892 18.8229C98.475 17.7582 97.918 16.3227 97.918 14.5165V5.90355C97.918 4.11632 98.475 2.68559 99.5892 1.61135C100.703 0.537118 102.2 0 104.08 0C105.959 0 107.437 0.537118 108.57 1.61135C109.704 2.68559 110.27 4.11632 110.27 5.90355V14.5165C110.27 16.3227 109.704 17.7582 108.57 18.8229C107.437 19.8876 105.94 20.42 104.08 20.42C102.22 20.42 100.703 19.8876 99.5892 18.8229ZM105.082 15.9282C105.325 15.6335 105.446 15.2294 105.446 14.7161V5.70391C105.446 5.19056 105.325 4.78653 105.082 4.49183C104.84 4.19713 104.506 4.04978 104.08 4.04978C103.653 4.04978 103.324 4.19713 103.091 4.49183C102.859 4.78653 102.743 5.19056 102.743 5.70391V14.7161C102.743 15.2294 102.859 15.6335 103.091 15.9282C103.324 16.2229 103.653 16.3702 104.08 16.3702C104.506 16.3702 104.84 16.2229 105.082 15.9282Z" fill="white"/>
<path d="M114.137 19.6643C113.226 19.1605 112.519 18.4523 112.015 17.5396C111.512 16.627 111.26 15.5718 111.26 14.374V0.570506C111.26 0.475441 111.294 0.394636 111.361 0.32809C111.429 0.261544 111.512 0.228271 111.609 0.228271H115.736C115.833 0.228271 115.915 0.261544 115.983 0.32809C116.051 0.394636 116.084 0.475441 116.084 0.570506V14.8303C116.084 15.2866 116.196 15.6574 116.419 15.9425C116.642 16.2277 116.937 16.3703 117.305 16.3703C117.673 16.3703 117.969 16.2277 118.192 15.9425C118.415 15.6574 118.526 15.2866 118.526 14.8303V0.570506C118.526 0.475441 118.56 0.394636 118.628 0.32809C118.695 0.261544 118.778 0.228271 118.875 0.228271H123.002C123.099 0.228271 123.181 0.261544 123.249 0.32809C123.317 0.394636 123.351 0.475441 123.351 0.570506V14.374C123.351 15.5718 123.099 16.627 122.595 17.5396C122.091 18.4523 121.384 19.1605 120.473 19.6643C119.563 20.1682 118.507 20.4201 117.305 20.4201C116.104 20.4201 115.048 20.1682 114.137 19.6643Z" fill="white"/>
<path d="M132.098 19.9068L130.122 12.3491C130.102 12.273 130.054 12.235 129.976 12.235H129.54C129.443 12.235 129.395 12.2825 129.395 12.3776V19.8497C129.395 19.9448 129.361 20.0256 129.293 20.0921C129.225 20.1587 129.143 20.192 129.046 20.192H124.919C124.822 20.192 124.74 20.1587 124.672 20.0921C124.604 20.0256 124.57 19.9448 124.57 19.8497V0.570506C124.57 0.475441 124.604 0.394636 124.672 0.32809C124.74 0.261544 124.822 0.228271 124.919 0.228271H131.168C132.292 0.228271 133.29 0.489701 134.162 1.01256C135.034 1.53542 135.707 2.26742 136.182 3.20856C136.656 4.14971 136.894 5.21919 136.894 6.41702C136.894 7.48175 136.695 8.43715 136.298 9.28323C135.901 10.1293 135.344 10.809 134.627 11.3224C134.588 11.3414 134.559 11.3652 134.539 11.3937C134.52 11.4222 134.52 11.4555 134.539 11.4935L137.039 19.7927L137.068 19.9068C137.068 20.0969 136.962 20.192 136.748 20.192H132.505C132.292 20.192 132.156 20.0969 132.098 19.9068ZM129.395 4.42065V8.47042C129.395 8.56549 129.443 8.61302 129.54 8.61302H130.354C130.877 8.61302 131.294 8.42289 131.604 8.04263C131.914 7.66237 132.069 7.13951 132.069 6.47405C132.069 5.77057 131.914 5.2287 131.604 4.84844C131.294 4.46818 130.877 4.27805 130.354 4.27805H129.54C129.443 4.27805 129.395 4.32558 129.395 4.42065Z" fill="white"/>
<path d="M140.406 19.7498C139.515 19.303 138.822 18.6756 138.328 17.8675C137.834 17.0594 137.587 16.1421 137.587 15.1154V14.2313C137.587 14.1362 137.621 14.0554 137.689 13.9888C137.756 13.9223 137.839 13.889 137.936 13.889H142.005C142.102 13.889 142.184 13.9223 142.252 13.9888C142.32 14.0554 142.354 14.1362 142.354 14.2313V14.8872C142.354 15.3435 142.465 15.7048 142.688 15.9709C142.911 16.2371 143.196 16.3702 143.545 16.3702C143.894 16.3702 144.18 16.2419 144.403 15.9852C144.625 15.7285 144.737 15.4006 144.737 15.0013C144.737 14.564 144.562 14.1695 144.214 13.8177C143.865 13.466 143.167 12.9194 142.121 12.1778C141.152 11.4934 140.358 10.8802 139.738 10.3383C139.118 9.79647 138.585 9.1215 138.139 8.31345C137.694 7.5054 137.471 6.569 137.471 5.50427C137.471 4.43954 137.718 3.46037 138.212 2.6238C138.706 1.78723 139.404 1.14078 140.305 0.684469C141.206 0.228156 142.237 0 143.4 0C144.562 0 145.623 0.23291 146.524 0.698729C147.425 1.16455 148.123 1.8205 148.617 2.66658C149.111 3.51266 149.358 4.48708 149.358 5.58983V6.2743C149.358 6.36937 149.324 6.45017 149.256 6.51672C149.189 6.58326 149.106 6.61654 149.009 6.61654H144.969C144.872 6.61654 144.79 6.58326 144.722 6.51672C144.655 6.45017 144.621 6.36937 144.621 6.2743V5.47575C144.621 5.05747 144.504 4.71523 144.272 4.44905C144.039 4.18287 143.749 4.04978 143.4 4.04978C143.051 4.04978 142.77 4.18287 142.557 4.44905C142.344 4.71523 142.237 5.06697 142.237 5.50427C142.237 5.9796 142.402 6.40739 142.731 6.78765C143.061 7.16791 143.729 7.71929 144.737 8.44179C145.958 9.3354 146.878 10.0579 147.498 10.6093C148.118 11.1607 148.602 11.7738 148.951 12.4488C149.3 13.1237 149.474 13.9175 149.474 14.8302C149.474 16.5413 148.927 17.9008 147.832 18.9085C146.737 19.9162 145.299 20.42 143.516 20.42C142.334 20.42 141.298 20.1966 140.406 19.7498Z" fill="white"/>
</g>
<defs>
<clipPath id="clip0_222_366">
<rect width="149.474" height="20.42" fill="white"/>
</clipPath>
</defs>
</svg>
